# xmcd CD database file
#
# Track frame offsets:
#	150
#	15484
#	32434
#
# Disc length: 632 seconds
#
# Revision: 2
# Processed by: cddbd v1.5.2PL0 Copyright (c) Steve Scherf et al.
# Submitted via: CDex 1.51
#
DISCID=13027603
DTITLE=Zoe Gil - Dismissed - CD Single
DYEAR=2003
DGENRE=Christian Rock
TTITLE0=Dismissed
TTITLE1=Dismissed (Omega 8 Mix Featuring Shon Lock)
TTITLE2=Anything is Possible
EXTD=YEAR: 2003
EXTT0=
EXTT1=
EXTT2=
PLAYORDER=
